<?xml version="1.0" encoding="UTF-8"?>
<svg version="1.1" xmlns="http://www.w3.org/2000/svg" width="150" height="150">
<path d="M0 0 C30.69 0 61.38 0 93 0 C93 41.58 93 83.16 93 126 C89.04 126 85.08 126 81 126 C81.33 129.96 81.66 133.92 82 138 C77.71 138 73.42 138 69 138 C69.33 141.96 69.66 145.92 70 150 C38.65 150 7.3 150 -25 150 C-25.04016367 118.80175491 -25.04016367 118.80175491 -25.05025387 103.44538212 C-25.05580576 95.1239827 -25.06286565 86.80259326 -25.07543945 78.48120117 C-25.08538632 71.89520334 -25.09185343 65.30921302 -25.09408849 58.72320789 C-25.0953956 55.23386929 -25.09848142 51.74455216 -25.10573006 48.25522041 C-25.11374398 44.36618768 -25.11399114 40.47717622 -25.11352539 36.58813477 C-25.11712067 35.42288773 -25.12071594 34.25764069 -25.12442017 33.05708313 C-25.1230455 32.00393921 -25.12167084 30.95079529 -25.12025452 29.86573792 C-25.12163721 28.48443113 -25.12163721 28.48443113 -25.12304783 27.07521915 C-25 25 -25 25 -24 24 C-22.31391034 23.92794489 -20.62499341 23.91613932 -18.9375 23.9375 C-18.01839844 23.94652344 -17.09929688 23.95554687 -16.15234375 23.96484375 C-15.44207031 23.97644531 -14.73179688 23.98804687 -14 24 C-13.93941406 23.21753906 -13.87882812 22.43507813 -13.81640625 21.62890625 C-13.73261719 20.61699219 -13.64882813 19.60507812 -13.5625 18.5625 C-13.48128906 17.55316406 -13.40007813 16.54382813 -13.31640625 15.50390625 C-13 13 -13 13 -12 12 C-7.99779347 11.85644883 -4.00558317 11.95783597 0 12 C0 8.04 0 4.08 0 0 Z " fill="#7CD857" transform="translate(41,0)"/>
<path d="M0 0 C15.18 0.33 30.36 0.66 46 1 C46 42.25 46 83.5 46 126 C30.49 126 14.98 126 -1 126 C-1.02254705 109.71929388 -1.04097919 93.43860102 -1.05181217 77.15788364 C-1.05697512 69.59898381 -1.0640178 62.04009435 -1.07543945 54.48120117 C-1.08538632 47.89520334 -1.09185343 41.30921302 -1.09408849 34.72320789 C-1.0953956 31.23386929 -1.09848142 27.74455216 -1.10573006 24.25522041 C-1.11374398 20.36618768 -1.11399114 16.47717622 -1.11352539 12.58813477 C-1.11712067 11.42288773 -1.12071594 10.25764069 -1.12442017 9.05708313 C-1.1230455 8.00393921 -1.12167084 6.95079529 -1.12025452 5.86573792 C-1.12163721 4.48443113 -1.12163721 4.48443113 -1.12304783 3.07521915 C-1 1 -1 1 0 0 Z " fill="#BFFE71" transform="translate(17,24)"/>
<path d="M0 0 C30.69 0 61.38 0 93 0 C93 41.58 93 83.16 93 126 C89.04 126 85.08 126 81 126 C81.33 129.96 81.66 133.92 82 138 C77.71 138 73.42 138 69 138 C69.33 141.96 69.66 145.92 70 150 C69.34 150 68.68 150 68 150 C68 108.75 68 67.5 68 25 C56.78 25 45.56 25 34 25 C34 20.71 34 16.42 34 12 C22.78 12 11.56 12 0 12 C0 8.04 0 4.08 0 0 Z " fill="#BBFB71" transform="translate(41,0)"/>
<path d="M0 0 C15.51 0 31.02 0 47 0 C47 41.58 47 83.16 47 126 C43.04 126 39.08 126 35 126 C35 88.38 35 50.76 35 12 C23.45 12 11.9 12 0 12 C0 8.04 0 4.08 0 0 Z " fill="#03BF64" transform="translate(87,0)"/>
<path d="M0 0 C15.18 0 30.36 0 46 0 C46 3.96 46 7.92 46 12 C30.82 12 15.64 12 0 12 C0 8.04 0 4.08 0 0 Z " fill="#02BF63" transform="translate(29,12)"/>
<path d="M0 0 C15.18 0 30.36 0 46 0 C46 3.96 46 7.92 46 12 C30.82 12 15.64 12 0 12 C0 8.04 0 4.08 0 0 Z " fill="#7DD856" transform="translate(41,0)"/>
<path d="M0 0 C9.9 0 19.8 0 30 0 C30 3.3 30 6.6 30 10 C20.1 10 10.2 10 0 10 C0 6.7 0 3.4 0 0 Z " fill="#0AC062" transform="translate(63,50)"/>
<path d="M0 0 C9.9 0 19.8 0 30 0 C30 3.3 30 6.6 30 10 C20.1 10 10.2 10 0 10 C0 6.7 0 3.4 0 0 Z " fill="#82DB58" transform="translate(33,50)"/>
<path d="M0 0 C9.9 0 19.8 0 30 0 C30 2.97 30 5.94 30 9 C20.1 9 10.2 9 0 9 C0 6.03 0 3.06 0 0 Z " fill="#02BF62" transform="translate(63,130)"/>
<path d="M0 0 C9.9 0 19.8 0 30 0 C30 2.97 30 5.94 30 9 C20.1 9 10.2 9 0 9 C0 6.03 0 3.06 0 0 Z " fill="#7ED957" transform="translate(33,130)"/>
<path d="M0 0 C9.9 0 19.8 0 30 0 C30 2.97 30 5.94 30 9 C20.1 9 10.2 9 0 9 C0 6.03 0 3.06 0 0 Z " fill="#01BF62" transform="translate(63,115)"/>
<path d="M0 0 C9.9 0 19.8 0 30 0 C30 2.97 30 5.94 30 9 C20.1 9 10.2 9 0 9 C0 6.03 0 3.06 0 0 Z " fill="#7DD857" transform="translate(33,115)"/>
<path d="M0 0 C9.9 0 19.8 0 30 0 C30 2.97 30 5.94 30 9 C20.1 9 10.2 9 0 9 C0 6.03 0 3.06 0 0 Z " fill="#01BF62" transform="translate(63,81)"/>
<path d="M0 0 C9.9 0 19.8 0 30 0 C30 2.97 30 5.94 30 9 C20.1 9 10.2 9 0 9 C0 6.03 0 3.06 0 0 Z " fill="#7DD957" transform="translate(33,81)"/>
<path d="M0 0 C9.9 0 19.8 0 30 0 C30 2.97 30 5.94 30 9 C20.1 9 10.2 9 0 9 C0 6.03 0 3.06 0 0 Z " fill="#04BF62" transform="translate(63,66)"/>
<path d="M0 0 C9.9 0 19.8 0 30 0 C30 2.97 30 5.94 30 9 C20.1 9 10.2 9 0 9 C0 6.03 0 3.06 0 0 Z " fill="#7ED957" transform="translate(33,66)"/>
<path d="M0 0 C1.37478516 0.01740234 1.37478516 0.01740234 2.77734375 0.03515625 C3.69644531 0.04417969 4.61554687 0.05320312 5.5625 0.0625 C6.27277344 0.07410156 6.98304687 0.08570312 7.71484375 0.09765625 C8.04484375 0.75765625 8.37484375 1.41765625 8.71484375 2.09765625 C5.41484375 2.09765625 2.11484375 2.09765625 -1.28515625 2.09765625 C-1.61515625 43.01765625 -1.94515625 83.93765625 -2.28515625 126.09765625 C-2.61515625 126.09765625 -2.94515625 126.09765625 -3.28515625 126.09765625 C-3.30848527 109.81695322 -3.32613544 93.53625558 -3.33696842 77.25553989 C-3.34213137 69.69664006 -3.34917405 62.1377506 -3.3605957 54.57885742 C-3.37054257 47.99285959 -3.37700968 41.40686927 -3.37924474 34.82086414 C-3.38055185 31.33152554 -3.38363767 27.84220841 -3.39088631 24.35287666 C-3.39890023 20.46384393 -3.39914739 16.57483247 -3.39868164 12.68579102 C-3.40227692 11.52054398 -3.40587219 10.35529694 -3.40957642 9.15473938 C-3.40820175 8.10159546 -3.40682709 7.04845154 -3.40541077 5.96339417 C-3.40679346 4.58208738 -3.40679346 4.58208738 -3.40820408 3.1728754 C-3.23368023 0.22950582 -2.95173278 0.12614243 0 0 Z " fill="#C9FE87" transform="translate(19.28515625,23.90234375)"/>
<path d="M0 0 C5.28 0 10.56 0 16 0 C16 2.97 16 5.94 16 9 C10.72 9 5.44 9 0 9 C0 6.03 0 3.06 0 0 Z " fill="#04BF62" transform="translate(63,35)"/>
<path d="M0 0 C5.28 0 10.56 0 16 0 C16 2.97 16 5.94 16 9 C10.72 9 5.44 9 0 9 C0 6.03 0 3.06 0 0 Z " fill="#7DD957" transform="translate(47,35)"/>
</svg>
