<?xml version="1.0" encoding="iso-8859-1"?>
<!-- Uploaded to: SVG Repo, www.svgrepo.com, Generator: SVG Repo Mixer Tools -->
<svg version="1.1" id="Layer_1" xmlns="http://www.w3.org/2000/svg" xmlns:xlink="http://www.w3.org/1999/xlink" 
	 viewBox="0 0 512.002 512.002" xml:space="preserve">
<polygon style="fill:#F39624;" points="456.941,0 297.434,0 276.519,429.133 456.941,429.133 "/>
<rect x="137.931" style="fill:#F7C02D;" width="159.508" height="429.129"/>
<polygon style="fill:#FBE27B;" points="415.508,41.433 256.001,41.433 235.086,470.567 415.508,470.567 "/>
<rect x="96.489" y="41.433" style="fill:#F39624;" width="159.508" height="429.129"/>
<polygon style="fill:#F7C02D;" points="374.073,82.868 214.568,82.868 193.653,286.399 214.568,512 374.073,512 "/>
<rect x="55.061" y="82.873" style="fill:#FBE27B;" width="159.508" height="429.129"/>
<g>
	<polygon style="fill:#F39624;" points="268.528,119.443 214.567,119.443 204.109,135.117 214.567,150.791 268.528,150.791 	"/>
	<polygon style="fill:#F39624;" points="317.697,171.692 214.567,171.692 204.109,187.366 214.567,203.04 317.697,203.04 	"/>
</g>
<g>
	<rect x="160.606" y="119.445" style="fill:#F7C02D;" width="53.96" height="31.348"/>
	<rect x="111.432" y="171.691" style="fill:#F7C02D;" width="103.134" height="31.348"/>
</g>
<polygon style="fill:#F39624;" points="317.697,223.942 214.567,223.942 204.109,239.616 214.567,255.289 317.697,255.289 "/>
<rect x="111.432" y="223.938" style="fill:#F7C02D;" width="103.134" height="31.348"/>
<polygon style="fill:#F39624;" points="317.697,276.191 214.567,276.191 204.109,291.865 214.567,307.539 317.697,307.539 "/>
<rect x="111.432" y="276.194" style="fill:#F7C02D;" width="103.134" height="31.348"/>
<polygon style="fill:#F39624;" points="317.697,391.828 214.567,391.828 204.109,407.501 214.567,423.175 317.697,423.175 "/>
<rect x="111.432" y="391.825" style="fill:#F7C02D;" width="103.134" height="31.348"/>
<polygon style="fill:#F39624;" points="317.697,444.077 214.567,444.077 204.109,459.751 214.567,475.425 317.697,475.425 "/>
<rect x="111.432" y="444.082" style="fill:#F7C02D;" width="103.134" height="31.348"/>
</svg>