<?xml version="1.0" encoding="UTF-8"?>
<svg version="1.1" xmlns="http://www.w3.org/2000/svg" width="150" height="150">
<path d="M0 0 C30.69 0 61.38 0 93 0 C93 41.58 93 83.16 93 126 C89.04 126 85.08 126 81 126 C81.33 129.96 81.66 133.92 82 138 C77.71 138 73.42 138 69 138 C69.33 141.96 69.66 145.92 70 150 C38.65 150 7.3 150 -25 150 C-25.04016367 118.80175491 -25.04016367 118.80175491 -25.05025387 103.44538212 C-25.05580576 95.1239827 -25.06286565 86.80259326 -25.07543945 78.48120117 C-25.08538632 71.89520334 -25.09185343 65.30921302 -25.09408849 58.72320789 C-25.0953956 55.23386929 -25.09848142 51.74455216 -25.10573006 48.25522041 C-25.11374398 44.36618768 -25.11399114 40.47717622 -25.11352539 36.58813477 C-25.11712067 35.42288773 -25.12071594 34.25764069 -25.12442017 33.05708313 C-25.1230455 32.00393921 -25.12167084 30.95079529 -25.12025452 29.86573792 C-25.12163721 28.48443113 -25.12163721 28.48443113 -25.12304783 27.07521915 C-25 25 -25 25 -24 24 C-22.31391034 23.92794489 -20.62499341 23.91613932 -18.9375 23.9375 C-18.01839844 23.94652344 -17.09929688 23.95554687 -16.15234375 23.96484375 C-15.44207031 23.97644531 -14.73179688 23.98804687 -14 24 C-13.44531238 21.01855407 -13 18.22509466 -13 15.1875 C-13 13 -13 13 -12 12 C-7.99779347 11.85644883 -4.00558317 11.95783597 0 12 C0 8.04 0 4.08 0 0 Z " fill="#FF5656" transform="translate(41,0)"/>
<path d="M0 0 C0.33 0.99 0.66 1.98 1 3 C12.22 3 23.44 3 35 3 C35 6.63 35 10.26 35 14 C29.72 14 24.44 14 19 14 C19 16.97 19 19.94 19 23 C24.28 23 29.56 23 35 23 C35 24.98 35 26.96 35 29 C24.77 29 14.54 29 4 29 C4 31.97 4 34.94 4 38 C14.23 38 24.46 38 35 38 C35 40.31 35 42.62 35 45 C24.77 45 14.54 45 4 45 C4 47.97 4 50.94 4 54 C14.23 54 24.46 54 35 54 C35 55.98 35 57.96 35 60 C25.1 60 15.2 60 5 60 C5 62.97 5 65.94 5 69 C14.9 69 24.8 69 35 69 C35 77.25 35 85.5 35 94 C25.1 94 15.2 94 5 94 C5 96.97 5 99.94 5 103 C14.9 103 24.8 103 35 103 C35 104.98 35 106.96 35 109 C25.1 109 15.2 109 5 109 C5 111.97 5 114.94 5 118 C14.9 118 24.8 118 35 118 C35 121.63 35 125.26 35 129 C19.49 129 3.98 129 -12 129 C-12.02254705 112.71929388 -12.04097919 96.43860102 -12.05181217 80.15788364 C-12.05697512 72.59898381 -12.0640178 65.04009435 -12.07543945 57.48120117 C-12.08538632 50.89520334 -12.09185343 44.30921302 -12.09408849 37.72320789 C-12.0953956 34.23386929 -12.09848142 30.74455216 -12.10573006 27.25522041 C-12.11374398 23.36618768 -12.11399114 19.47717622 -12.11352539 15.58813477 C-12.11712067 14.42288773 -12.12071594 13.25764069 -12.12442017 12.05708313 C-12.1230455 11.00393921 -12.12167084 9.95079529 -12.12025452 8.86573792 C-12.12163721 7.48443113 -12.12163721 7.48443113 -12.12304783 6.07521915 C-12 4 -12 4 -11 3 C-9.31391034 2.92794489 -7.62499341 2.91613932 -5.9375 2.9375 C-5.01839844 2.94652344 -4.09929688 2.95554687 -3.15234375 2.96484375 C-2.44207031 2.97644531 -1.73179688 2.98804688 -1 3 C-0.67 2.01 -0.34 1.02 0 0 Z " fill="#FE67C2" transform="translate(28,21)"/>
<path d="M0 0 C30.69 0 61.38 0 93 0 C93 41.58 93 83.16 93 126 C89.04 126 85.08 126 81 126 C81 88.38 81 50.76 81 12 C65.49 12 49.98 12 34 12 C34 15.96 34 19.92 34 24 C18.82 24 3.64 24 -12 24 C-13.21276596 16.72340426 -13.21276596 16.72340426 -13 13 C-12 12 -12 12 -9.27734375 11.90234375 C-6.18489583 11.93489583 -3.09244792 11.96744792 0 12 C0 8.04 0 4.08 0 0 Z " fill="#FF3333" transform="translate(41,0)"/>
<path d="M0 0 C15.51 0 31.02 0 47 0 C47.33 41.58 47.66 83.16 48 126 C43.71 126 39.42 126 35 126 C35.33 129.96 35.66 133.92 36 138 C35.34 138 34.68 138 34 138 C34 96.42 34 54.84 34 12 C22.78 12 11.56 12 0 12 C0 8.04 0 4.08 0 0 Z " fill="#FE65BE" transform="translate(75,12)"/>
<path d="M0 0 C1.22244667 0.00333092 1.22244667 0.00333092 2.46958923 0.00672913 C3.39046829 0.00680466 4.31134735 0.00688019 5.26013184 0.00695801 C6.2611644 0.01211929 7.26219696 0.01728058 8.29356384 0.02259827 C9.31316696 0.02401321 10.33277008 0.02542816 11.38327026 0.02688599 C14.65417867 0.03250355 17.92501972 0.04505902 21.19590759 0.05775452 C23.40749515 0.06276725 25.61908377 0.06733055 27.83067322 0.07142639 C33.26494413 0.08247869 38.69916443 0.09975508 44.13340759 0.12025452 C44.13340759 4.08025452 44.13340759 8.04025452 44.13340759 12.12025452 C28.95340759 12.12025452 13.77340759 12.12025452 -1.86659241 12.12025452 C-3.07935836 4.84365877 -3.07935836 4.84365877 -2.86659241 1.12025452 C-1.86659241 0.12025452 -1.86659241 0.12025452 0 0 Z " fill="#FE3232" transform="translate(30.866592407226563,11.879745483398438)"/>
<path d="M0 0 C15.18 0 30.36 0 46 0 C46 3.96 46 7.92 46 12 C30.82 12 15.64 12 0 12 C0 8.04 0 4.08 0 0 Z " fill="#FF5656" transform="translate(41,0)"/>
<path d="M0 0 C19.8 0 39.6 0 60 0 C60 2.97 60 5.94 60 9 C40.2 9 20.4 9 0 9 C0 6.03 0 3.06 0 0 Z " fill="#FF3131" transform="translate(33,115)"/>
<path d="M0 0 C19.8 0 39.6 0 60 0 C60 2.97 60 5.94 60 9 C40.2 9 20.4 9 0 9 C0 6.03 0 3.06 0 0 Z " fill="#FF3131" transform="translate(33,81)"/>
<path d="M0 0 C10.23 0 20.46 0 31 0 C31 2.97 31 5.94 31 9 C20.77 9 10.54 9 0 9 C0 6.03 0 3.06 0 0 Z " fill="#FF575B" transform="translate(32,66)"/>
<path d="M0 0 C10.23 0 20.46 0 31 0 C31 2.97 31 5.94 31 9 C20.77 9 10.54 9 0 9 C0 6.03 0 3.06 0 0 Z " fill="#FF575A" transform="translate(32,50)"/>
<path d="M0 0 C9.9 0 19.8 0 30 0 C30 2.97 30 5.94 30 9 C20.1 9 10.2 9 0 9 C0 6.03 0 3.06 0 0 Z " fill="#FF3131" transform="translate(63,130)"/>
<path d="M0 0 C9.9 0 19.8 0 30 0 C30 2.97 30 5.94 30 9 C20.1 9 10.2 9 0 9 C0 6.03 0 3.06 0 0 Z " fill="#FF5657" transform="translate(33,115)"/>
<path d="M0 0 C9.9 0 19.8 0 30 0 C30 2.97 30 5.94 30 9 C20.1 9 10.2 9 0 9 C0 6.03 0 3.06 0 0 Z " fill="#FF5657" transform="translate(33,81)"/>
<path d="M0 0 C9.9 0 19.8 0 30 0 C30 2.97 30 5.94 30 9 C20.1 9 10.2 9 0 9 C0 6.03 0 3.06 0 0 Z " fill="#FF3131" transform="translate(63,66)"/>
<path d="M0 0 C9.9 0 19.8 0 30 0 C30 2.97 30 5.94 30 9 C20.1 9 10.2 9 0 9 C0 6.03 0 3.06 0 0 Z " fill="#FF3131" transform="translate(63,50)"/>
<path d="M0 0 C5.28 0 10.56 0 16 0 C16 2.97 16 5.94 16 9 C10.72 9 5.44 9 0 9 C0 6.03 0 3.06 0 0 Z " fill="#FF3131" transform="translate(63,35)"/>
<path d="M0 0 C3.3 0 6.6 0 10 0 C10.33 0.66 10.66 1.32 11 2 C7.7 2 4.4 2 1 2 C1 2.66 1 3.32 1 4 C0.34 4 -0.32 4 -1 4 C-0.67 2.68 -0.34 1.36 0 0 Z " fill="#FE74CA" transform="translate(17,24)"/>
</svg>
